<svg xmlns="http://www.w3.org/2000/svg" version="1.1" xmlns:xlink="http://www.w3.org/1999/xlink" xmlns:svgjs="http://svgjs.dev/svgjs" viewBox="0 0 800 800" opacity="1"><g stroke-width="1" stroke="hsla(0, 0%, 100%, 1.00)" fill="none" stroke-linecap="round" transform="matrix(1,0,0,1,-5,-7.552170038223267)"><path d="M10,10C28.75,7.916666666666666,60.416666666666664,2.2916666666666665,100,0C139.58333333333334,-2.2916666666666665,158.33333333333331,-3.2916666666666665,200,-1C241.66666666666669,1.2916666666666665,258.3333333333333,10.791666666666666,300,11C341.6666666666667,11.208333333333334,358.3333333333333,-1.4583333333333335,400,0C441.6666666666667,1.4583333333333335,458.3333333333333,15.5,500,18C541.6666666666666,20.5,558.3333333333334,11.791666666666666,600,12C641.6666666666666,12.208333333333334,658.3333333333334,17.75,700,19C741.6666666666666,20.25,779.1666666666666,18.208333333333332,800,18"></path><path d="M10,10C28.75,7.916666666666666,60.416666666666664,2.2916666666666665,100,0C139.58333333333334,-2.2916666666666665,158.33333333333331,-3.2916666666666665,200,-1C241.66666666666669,1.2916666666666665,258.3333333333333,10.791666666666666,300,11C341.6666666666667,11.208333333333334,358.3333333333333,-1.4583333333333335,400,0C441.6666666666667,1.4583333333333335,458.3333333333333,15.5,500,18C541.6666666666666,20.5,558.3333333333334,11.791666666666666,600,12C641.6666666666666,12.208333333333334,658.3333333333334,17.75,700,19C741.6666666666666,20.25,779.1666666666666,18.208333333333332,800,18" transform="matrix(1,0,0,1,0,798)"></path><path d="M10,10C28.75,7.916666666666666,60.416666666666664,2.2916666666666665,100,0C139.58333333333334,-2.2916666666666665,158.33333333333331,-3.2916666666666665,200,-1C241.66666666666669,1.2916666666666665,258.3333333333333,10.791666666666666,300,11C341.6666666666667,11.208333333333334,358.3333333333333,-1.4583333333333335,400,0C441.6666666666667,1.4583333333333335,458.3333333333333,15.5,500,18C541.6666666666666,20.5,558.3333333333334,11.791666666666666,600,12C641.6666666666666,12.208333333333334,658.3333333333334,17.75,700,19C741.6666666666666,20.25,779.1666666666666,18.208333333333332,800,18" transform="matrix(1,0,0,1,0,779)"></path><path d="M10,10C28.75,7.916666666666666,60.416666666666664,2.2916666666666665,100,0C139.58333333333334,-2.2916666666666665,158.33333333333331,-3.2916666666666665,200,-1C241.66666666666669,1.2916666666666665,258.3333333333333,10.791666666666666,300,11C341.6666666666667,11.208333333333334,358.3333333333333,-1.4583333333333335,400,0C441.6666666666667,1.4583333333333335,458.3333333333333,15.5,500,18C541.6666666666666,20.5,558.3333333333334,11.791666666666666,600,12C641.6666666666666,12.208333333333334,658.3333333333334,17.75,700,19C741.6666666666666,20.25,779.1666666666666,18.208333333333332,800,18" transform="matrix(1,0,0,1,0,760)"></path><path d="M10,10C28.75,7.916666666666666,60.416666666666664,2.2916666666666665,100,0C139.58333333333334,-2.2916666666666665,158.33333333333331,-3.2916666666666665,200,-1C241.66666666666669,1.2916666666666665,258.3333333333333,10.791666666666666,300,11C341.6666666666667,11.208333333333334,358.3333333333333,-1.4583333333333335,400,0C441.6666666666667,1.4583333333333335,458.3333333333333,15.5,500,18C541.6666666666666,20.5,558.3333333333334,11.791666666666666,600,12C641.6666666666666,12.208333333333334,658.3333333333334,17.75,700,19C741.6666666666666,20.25,779.1666666666666,18.208333333333332,800,18" transform="matrix(1,0,0,1,0,741)"></path><path d="M10,10C28.75,7.916666666666666,60.416666666666664,2.2916666666666665,100,0C139.58333333333334,-2.2916666666666665,158.33333333333331,-3.2916666666666665,200,-1C241.66666666666669,1.2916666666666665,258.3333333333333,10.791666666666666,300,11C341.6666666666667,11.208333333333334,358.3333333333333,-1.4583333333333335,400,0C441.6666666666667,1.4583333333333335,458.3333333333333,15.5,500,18C541.6666666666666,20.5,558.3333333333334,11.791666666666666,600,12C641.6666666666666,12.208333333333334,658.3333333333334,17.75,700,19C741.6666666666666,20.25,779.1666666666666,18.208333333333332,800,18" transform="matrix(1,0,0,1,0,722)"></path><path d="M10,10C28.75,7.916666666666666,60.416666666666664,2.2916666666666665,100,0C139.58333333333334,-2.2916666666666665,158.33333333333331,-3.2916666666666665,200,-1C241.66666666666669,1.2916666666666665,258.3333333333333,10.791666666666666,300,11C341.6666666666667,11.208333333333334,358.3333333333333,-1.4583333333333335,400,0C441.6666666666667,1.4583333333333335,458.3333333333333,15.5,500,18C541.6666666666666,20.5,558.3333333333334,11.791666666666666,600,12C641.6666666666666,12.208333333333334,658.3333333333334,17.75,700,19C741.6666666666666,20.25,779.1666666666666,18.208333333333332,800,18" transform="matrix(1,0,0,1,0,703)"></path><path d="M10,10C28.75,7.916666666666666,60.416666666666664,2.2916666666666665,100,0C139.58333333333334,-2.2916666666666665,158.33333333333331,-3.2916666666666665,200,-1C241.66666666666669,1.2916666666666665,258.3333333333333,10.791666666666666,300,11C341.6666666666667,11.208333333333334,358.3333333333333,-1.4583333333333335,400,0C441.6666666666667,1.4583333333333335,458.3333333333333,15.5,500,18C541.6666666666666,20.5,558.3333333333334,11.791666666666666,600,12C641.6666666666666,12.208333333333334,658.3333333333334,17.75,700,19C741.6666666666666,20.25,779.1666666666666,18.208333333333332,800,18" transform="matrix(1,0,0,1,0,684)"></path><path d="M10,10C28.75,7.916666666666666,60.416666666666664,2.2916666666666665,100,0C139.58333333333334,-2.2916666666666665,158.33333333333331,-3.2916666666666665,200,-1C241.66666666666669,1.2916666666666665,258.3333333333333,10.791666666666666,300,11C341.6666666666667,11.208333333333334,358.3333333333333,-1.4583333333333335,400,0C441.6666666666667,1.4583333333333335,458.3333333333333,15.5,500,18C541.6666666666666,20.5,558.3333333333334,11.791666666666666,600,12C641.6666666666666,12.208333333333334,658.3333333333334,17.75,700,19C741.6666666666666,20.25,779.1666666666666,18.208333333333332,800,18" transform="matrix(1,0,0,1,0,665)"></path><path d="M10,10C28.75,7.916666666666666,60.416666666666664,2.2916666666666665,100,0C139.58333333333334,-2.2916666666666665,158.33333333333331,-3.2916666666666665,200,-1C241.66666666666669,1.2916666666666665,258.3333333333333,10.791666666666666,300,11C341.6666666666667,11.208333333333334,358.3333333333333,-1.4583333333333335,400,0C441.6666666666667,1.4583333333333335,458.3333333333333,15.5,500,18C541.6666666666666,20.5,558.3333333333334,11.791666666666666,600,12C641.6666666666666,12.208333333333334,658.3333333333334,17.75,700,19C741.6666666666666,20.25,779.1666666666666,18.208333333333332,800,18" transform="matrix(1,0,0,1,0,646)"></path><path d="M10,10C28.75,7.916666666666666,60.416666666666664,2.2916666666666665,100,0C139.58333333333334,-2.2916666666666665,158.33333333333331,-3.2916666666666665,200,-1C241.66666666666669,1.2916666666666665,258.3333333333333,10.791666666666666,300,11C341.6666666666667,11.208333333333334,358.3333333333333,-1.4583333333333335,400,0C441.6666666666667,1.4583333333333335,458.3333333333333,15.5,500,18C541.6666666666666,20.5,558.3333333333334,11.791666666666666,600,12C641.6666666666666,12.208333333333334,658.3333333333334,17.75,700,19C741.6666666666666,20.25,779.1666666666666,18.208333333333332,800,18" transform="matrix(1,0,0,1,0,627)"></path><path d="M10,10C28.75,7.916666666666666,60.416666666666664,2.2916666666666665,100,0C139.58333333333334,-2.2916666666666665,158.33333333333331,-3.2916666666666665,200,-1C241.66666666666669,1.2916666666666665,258.3333333333333,10.791666666666666,300,11C341.6666666666667,11.208333333333334,358.3333333333333,-1.4583333333333335,400,0C441.6666666666667,1.4583333333333335,458.3333333333333,15.5,500,18C541.6666666666666,20.5,558.3333333333334,11.791666666666666,600,12C641.6666666666666,12.208333333333334,658.3333333333334,17.75,700,19C741.6666666666666,20.25,779.1666666666666,18.208333333333332,800,18" transform="matrix(1,0,0,1,0,608)"></path><path d="M10,10C28.75,7.916666666666666,60.416666666666664,2.2916666666666665,100,0C139.58333333333334,-2.2916666666666665,158.33333333333331,-3.2916666666666665,200,-1C241.66666666666669,1.2916666666666665,258.3333333333333,10.791666666666666,300,11C341.6666666666667,11.208333333333334,358.3333333333333,-1.4583333333333335,400,0C441.6666666666667,1.4583333333333335,458.3333333333333,15.5,500,18C541.6666666666666,20.5,558.3333333333334,11.791666666666666,600,12C641.6666666666666,12.208333333333334,658.3333333333334,17.75,700,19C741.6666666666666,20.25,779.1666666666666,18.208333333333332,800,18" transform="matrix(1,0,0,1,0,589)"></path><path d="M10,10C28.75,7.916666666666666,60.416666666666664,2.2916666666666665,100,0C139.58333333333334,-2.2916666666666665,158.33333333333331,-3.2916666666666665,200,-1C241.66666666666669,1.2916666666666665,258.3333333333333,10.791666666666666,300,11C341.6666666666667,11.208333333333334,358.3333333333333,-1.4583333333333335,400,0C441.6666666666667,1.4583333333333335,458.3333333333333,15.5,500,18C541.6666666666666,20.5,558.3333333333334,11.791666666666666,600,12C641.6666666666666,12.208333333333334,658.3333333333334,17.75,700,19C741.6666666666666,20.25,779.1666666666666,18.208333333333332,800,18" transform="matrix(1,0,0,1,0,570)"></path><path d="M10,10C28.75,7.916666666666666,60.416666666666664,2.2916666666666665,100,0C139.58333333333334,-2.2916666666666665,158.33333333333331,-3.2916666666666665,200,-1C241.66666666666669,1.2916666666666665,258.3333333333333,10.791666666666666,300,11C341.6666666666667,11.208333333333334,358.3333333333333,-1.4583333333333335,400,0C441.6666666666667,1.4583333333333335,458.3333333333333,15.5,500,18C541.6666666666666,20.5,558.3333333333334,11.791666666666666,600,12C641.6666666666666,12.208333333333334,658.3333333333334,17.75,700,19C741.6666666666666,20.25,779.1666666666666,18.208333333333332,800,18" transform="matrix(1,0,0,1,0,551)"></path><path d="M10,10C28.75,7.916666666666666,60.416666666666664,2.2916666666666665,100,0C139.58333333333334,-2.2916666666666665,158.33333333333331,-3.2916666666666665,200,-1C241.66666666666669,1.2916666666666665,258.3333333333333,10.791666666666666,300,11C341.6666666666667,11.208333333333334,358.3333333333333,-1.4583333333333335,400,0C441.6666666666667,1.4583333333333335,458.3333333333333,15.5,500,18C541.6666666666666,20.5,558.3333333333334,11.791666666666666,600,12C641.6666666666666,12.208333333333334,658.3333333333334,17.75,700,19C741.6666666666666,20.25,779.1666666666666,18.208333333333332,800,18" transform="matrix(1,0,0,1,0,532)"></path><path d="M10,10C28.75,7.916666666666666,60.416666666666664,2.2916666666666665,100,0C139.58333333333334,-2.2916666666666665,158.33333333333331,-3.2916666666666665,200,-1C241.66666666666669,1.2916666666666665,258.3333333333333,10.791666666666666,300,11C341.6666666666667,11.208333333333334,358.3333333333333,-1.4583333333333335,400,0C441.6666666666667,1.4583333333333335,458.3333333333333,15.5,500,18C541.6666666666666,20.5,558.3333333333334,11.791666666666666,600,12C641.6666666666666,12.208333333333334,658.3333333333334,17.75,700,19C741.6666666666666,20.25,779.1666666666666,18.208333333333332,800,18" transform="matrix(1,0,0,1,0,513)"></path><path d="M10,10C28.75,7.916666666666666,60.416666666666664,2.2916666666666665,100,0C139.58333333333334,-2.2916666666666665,158.33333333333331,-3.2916666666666665,200,-1C241.66666666666669,1.2916666666666665,258.3333333333333,10.791666666666666,300,11C341.6666666666667,11.208333333333334,358.3333333333333,-1.4583333333333335,400,0C441.6666666666667,1.4583333333333335,458.3333333333333,15.5,500,18C541.6666666666666,20.5,558.3333333333334,11.791666666666666,600,12C641.6666666666666,12.208333333333334,658.3333333333334,17.75,700,19C741.6666666666666,20.25,779.1666666666666,18.208333333333332,800,18" transform="matrix(1,0,0,1,0,494)"></path><path d="M10,10C28.75,7.916666666666666,60.416666666666664,2.2916666666666665,100,0C139.58333333333334,-2.2916666666666665,158.33333333333331,-3.2916666666666665,200,-1C241.66666666666669,1.2916666666666665,258.3333333333333,10.791666666666666,300,11C341.6666666666667,11.208333333333334,358.3333333333333,-1.4583333333333335,400,0C441.6666666666667,1.4583333333333335,458.3333333333333,15.5,500,18C541.6666666666666,20.5,558.3333333333334,11.791666666666666,600,12C641.6666666666666,12.208333333333334,658.3333333333334,17.75,700,19C741.6666666666666,20.25,779.1666666666666,18.208333333333332,800,18" transform="matrix(1,0,0,1,0,475)"></path><path d="M10,10C28.75,7.916666666666666,60.416666666666664,2.2916666666666665,100,0C139.58333333333334,-2.2916666666666665,158.33333333333331,-3.2916666666666665,200,-1C241.66666666666669,1.2916666666666665,258.3333333333333,10.791666666666666,300,11C341.6666666666667,11.208333333333334,358.3333333333333,-1.4583333333333335,400,0C441.6666666666667,1.4583333333333335,458.3333333333333,15.5,500,18C541.6666666666666,20.5,558.3333333333334,11.791666666666666,600,12C641.6666666666666,12.208333333333334,658.3333333333334,17.75,700,19C741.6666666666666,20.25,779.1666666666666,18.208333333333332,800,18" transform="matrix(1,0,0,1,0,456)"></path><path d="M10,10C28.75,7.916666666666666,60.416666666666664,2.2916666666666665,100,0C139.58333333333334,-2.2916666666666665,158.33333333333331,-3.2916666666666665,200,-1C241.66666666666669,1.2916666666666665,258.3333333333333,10.791666666666666,300,11C341.6666666666667,11.208333333333334,358.3333333333333,-1.4583333333333335,400,0C441.6666666666667,1.4583333333333335,458.3333333333333,15.5,500,18C541.6666666666666,20.5,558.3333333333334,11.791666666666666,600,12C641.6666666666666,12.208333333333334,658.3333333333334,17.75,700,19C741.6666666666666,20.25,779.1666666666666,18.208333333333332,800,18" transform="matrix(1,0,0,1,0,437)"></path><path d="M10,10C28.75,7.916666666666666,60.416666666666664,2.2916666666666665,100,0C139.58333333333334,-2.2916666666666665,158.33333333333331,-3.2916666666666665,200,-1C241.66666666666669,1.2916666666666665,258.3333333333333,10.791666666666666,300,11C341.6666666666667,11.208333333333334,358.3333333333333,-1.4583333333333335,400,0C441.6666666666667,1.4583333333333335,458.3333333333333,15.5,500,18C541.6666666666666,20.5,558.3333333333334,11.791666666666666,600,12C641.6666666666666,12.208333333333334,658.3333333333334,17.75,700,19C741.6666666666666,20.25,779.1666666666666,18.208333333333332,800,18" transform="matrix(1,0,0,1,0,418)"></path><path d="M10,10C28.75,7.916666666666666,60.416666666666664,2.2916666666666665,100,0C139.58333333333334,-2.2916666666666665,158.33333333333331,-3.2916666666666665,200,-1C241.66666666666669,1.2916666666666665,258.3333333333333,10.791666666666666,300,11C341.6666666666667,11.208333333333334,358.3333333333333,-1.4583333333333335,400,0C441.6666666666667,1.4583333333333335,458.3333333333333,15.5,500,18C541.6666666666666,20.5,558.3333333333334,11.791666666666666,600,12C641.6666666666666,12.208333333333334,658.3333333333334,17.75,700,19C741.6666666666666,20.25,779.1666666666666,18.208333333333332,800,18" transform="matrix(1,0,0,1,0,399)"></path><path d="M10,10C28.75,7.916666666666666,60.416666666666664,2.2916666666666665,100,0C139.58333333333334,-2.2916666666666665,158.33333333333331,-3.2916666666666665,200,-1C241.66666666666669,1.2916666666666665,258.3333333333333,10.791666666666666,300,11C341.6666666666667,11.208333333333334,358.3333333333333,-1.4583333333333335,400,0C441.6666666666667,1.4583333333333335,458.3333333333333,15.5,500,18C541.6666666666666,20.5,558.3333333333334,11.791666666666666,600,12C641.6666666666666,12.208333333333334,658.3333333333334,17.75,700,19C741.6666666666666,20.25,779.1666666666666,18.208333333333332,800,18" transform="matrix(1,0,0,1,0,380)"></path><path d="M10,10C28.75,7.916666666666666,60.416666666666664,2.2916666666666665,100,0C139.58333333333334,-2.2916666666666665,158.33333333333331,-3.2916666666666665,200,-1C241.66666666666669,1.2916666666666665,258.3333333333333,10.791666666666666,300,11C341.6666666666667,11.208333333333334,358.3333333333333,-1.4583333333333335,400,0C441.6666666666667,1.4583333333333335,458.3333333333333,15.5,500,18C541.6666666666666,20.5,558.3333333333334,11.791666666666666,600,12C641.6666666666666,12.208333333333334,658.3333333333334,17.75,700,19C741.6666666666666,20.25,779.1666666666666,18.208333333333332,800,18" transform="matrix(1,0,0,1,0,361)"></path><path d="M10,10C28.75,7.916666666666666,60.416666666666664,2.2916666666666665,100,0C139.58333333333334,-2.2916666666666665,158.33333333333331,-3.2916666666666665,200,-1C241.66666666666669,1.2916666666666665,258.3333333333333,10.791666666666666,300,11C341.6666666666667,11.208333333333334,358.3333333333333,-1.4583333333333335,400,0C441.6666666666667,1.4583333333333335,458.3333333333333,15.5,500,18C541.6666666666666,20.5,558.3333333333334,11.791666666666666,600,12C641.6666666666666,12.208333333333334,658.3333333333334,17.75,700,19C741.6666666666666,20.25,779.1666666666666,18.208333333333332,800,18" transform="matrix(1,0,0,1,0,342)"></path><path d="M10,10C28.75,7.916666666666666,60.416666666666664,2.2916666666666665,100,0C139.58333333333334,-2.2916666666666665,158.33333333333331,-3.2916666666666665,200,-1C241.66666666666669,1.2916666666666665,258.3333333333333,10.791666666666666,300,11C341.6666666666667,11.208333333333334,358.3333333333333,-1.4583333333333335,400,0C441.6666666666667,1.4583333333333335,458.3333333333333,15.5,500,18C541.6666666666666,20.5,558.3333333333334,11.791666666666666,600,12C641.6666666666666,12.208333333333334,658.3333333333334,17.75,700,19C741.6666666666666,20.25,779.1666666666666,18.208333333333332,800,18" transform="matrix(1,0,0,1,0,323)"></path><path d="M10,10C28.75,7.916666666666666,60.416666666666664,2.2916666666666665,100,0C139.58333333333334,-2.2916666666666665,158.33333333333331,-3.2916666666666665,200,-1C241.66666666666669,1.2916666666666665,258.3333333333333,10.791666666666666,300,11C341.6666666666667,11.208333333333334,358.3333333333333,-1.4583333333333335,400,0C441.6666666666667,1.4583333333333335,458.3333333333333,15.5,500,18C541.6666666666666,20.5,558.3333333333334,11.791666666666666,600,12C641.6666666666666,12.208333333333334,658.3333333333334,17.75,700,19C741.6666666666666,20.25,779.1666666666666,18.208333333333332,800,18" transform="matrix(1,0,0,1,0,304)"></path><path d="M10,10C28.75,7.916666666666666,60.416666666666664,2.2916666666666665,100,0C139.58333333333334,-2.2916666666666665,158.33333333333331,-3.2916666666666665,200,-1C241.66666666666669,1.2916666666666665,258.3333333333333,10.791666666666666,300,11C341.6666666666667,11.208333333333334,358.3333333333333,-1.4583333333333335,400,0C441.6666666666667,1.4583333333333335,458.3333333333333,15.5,500,18C541.6666666666666,20.5,558.3333333333334,11.791666666666666,600,12C641.6666666666666,12.208333333333334,658.3333333333334,17.75,700,19C741.6666666666666,20.25,779.1666666666666,18.208333333333332,800,18" transform="matrix(1,0,0,1,0,285)"></path><path d="M10,10C28.75,7.916666666666666,60.416666666666664,2.2916666666666665,100,0C139.58333333333334,-2.2916666666666665,158.33333333333331,-3.2916666666666665,200,-1C241.66666666666669,1.2916666666666665,258.3333333333333,10.791666666666666,300,11C341.6666666666667,11.208333333333334,358.3333333333333,-1.4583333333333335,400,0C441.6666666666667,1.4583333333333335,458.3333333333333,15.5,500,18C541.6666666666666,20.5,558.3333333333334,11.791666666666666,600,12C641.6666666666666,12.208333333333334,658.3333333333334,17.75,700,19C741.6666666666666,20.25,779.1666666666666,18.208333333333332,800,18" transform="matrix(1,0,0,1,0,266)"></path><path d="M10,10C28.75,7.916666666666666,60.416666666666664,2.2916666666666665,100,0C139.58333333333334,-2.2916666666666665,158.33333333333331,-3.2916666666666665,200,-1C241.66666666666669,1.2916666666666665,258.3333333333333,10.791666666666666,300,11C341.6666666666667,11.208333333333334,358.3333333333333,-1.4583333333333335,400,0C441.6666666666667,1.4583333333333335,458.3333333333333,15.5,500,18C541.6666666666666,20.5,558.3333333333334,11.791666666666666,600,12C641.6666666666666,12.208333333333334,658.3333333333334,17.75,700,19C741.6666666666666,20.25,779.1666666666666,18.208333333333332,800,18" transform="matrix(1,0,0,1,0,247)"></path><path d="M10,10C28.75,7.916666666666666,60.416666666666664,2.2916666666666665,100,0C139.58333333333334,-2.2916666666666665,158.33333333333331,-3.2916666666666665,200,-1C241.66666666666669,1.2916666666666665,258.3333333333333,10.791666666666666,300,11C341.6666666666667,11.208333333333334,358.3333333333333,-1.4583333333333335,400,0C441.6666666666667,1.4583333333333335,458.3333333333333,15.5,500,18C541.6666666666666,20.5,558.3333333333334,11.791666666666666,600,12C641.6666666666666,12.208333333333334,658.3333333333334,17.75,700,19C741.6666666666666,20.25,779.1666666666666,18.208333333333332,800,18" transform="matrix(1,0,0,1,0,228)"></path><path d="M10,10C28.75,7.916666666666666,60.416666666666664,2.2916666666666665,100,0C139.58333333333334,-2.2916666666666665,158.33333333333331,-3.2916666666666665,200,-1C241.66666666666669,1.2916666666666665,258.3333333333333,10.791666666666666,300,11C341.6666666666667,11.208333333333334,358.3333333333333,-1.4583333333333335,400,0C441.6666666666667,1.4583333333333335,458.3333333333333,15.5,500,18C541.6666666666666,20.5,558.3333333333334,11.791666666666666,600,12C641.6666666666666,12.208333333333334,658.3333333333334,17.75,700,19C741.6666666666666,20.25,779.1666666666666,18.208333333333332,800,18" transform="matrix(1,0,0,1,0,209)"></path><path d="M10,10C28.75,7.916666666666666,60.416666666666664,2.2916666666666665,100,0C139.58333333333334,-2.2916666666666665,158.33333333333331,-3.2916666666666665,200,-1C241.66666666666669,1.2916666666666665,258.3333333333333,10.791666666666666,300,11C341.6666666666667,11.208333333333334,358.3333333333333,-1.4583333333333335,400,0C441.6666666666667,1.4583333333333335,458.3333333333333,15.5,500,18C541.6666666666666,20.5,558.3333333333334,11.791666666666666,600,12C641.6666666666666,12.208333333333334,658.3333333333334,17.75,700,19C741.6666666666666,20.25,779.1666666666666,18.208333333333332,800,18" transform="matrix(1,0,0,1,0,190)"></path><path d="M10,10C28.75,7.916666666666666,60.416666666666664,2.2916666666666665,100,0C139.58333333333334,-2.2916666666666665,158.33333333333331,-3.2916666666666665,200,-1C241.66666666666669,1.2916666666666665,258.3333333333333,10.791666666666666,300,11C341.6666666666667,11.208333333333334,358.3333333333333,-1.4583333333333335,400,0C441.6666666666667,1.4583333333333335,458.3333333333333,15.5,500,18C541.6666666666666,20.5,558.3333333333334,11.791666666666666,600,12C641.6666666666666,12.208333333333334,658.3333333333334,17.75,700,19C741.6666666666666,20.25,779.1666666666666,18.208333333333332,800,18" transform="matrix(1,0,0,1,0,171)"></path><path d="M10,10C28.75,7.916666666666666,60.416666666666664,2.2916666666666665,100,0C139.58333333333334,-2.2916666666666665,158.33333333333331,-3.2916666666666665,200,-1C241.66666666666669,1.2916666666666665,258.3333333333333,10.791666666666666,300,11C341.6666666666667,11.208333333333334,358.3333333333333,-1.4583333333333335,400,0C441.6666666666667,1.4583333333333335,458.3333333333333,15.5,500,18C541.6666666666666,20.5,558.3333333333334,11.791666666666666,600,12C641.6666666666666,12.208333333333334,658.3333333333334,17.75,700,19C741.6666666666666,20.25,779.1666666666666,18.208333333333332,800,18" transform="matrix(1,0,0,1,0,152)"></path><path d="M10,10C28.75,7.916666666666666,60.416666666666664,2.2916666666666665,100,0C139.58333333333334,-2.2916666666666665,158.33333333333331,-3.2916666666666665,200,-1C241.66666666666669,1.2916666666666665,258.3333333333333,10.791666666666666,300,11C341.6666666666667,11.208333333333334,358.3333333333333,-1.4583333333333335,400,0C441.6666666666667,1.4583333333333335,458.3333333333333,15.5,500,18C541.6666666666666,20.5,558.3333333333334,11.791666666666666,600,12C641.6666666666666,12.208333333333334,658.3333333333334,17.75,700,19C741.6666666666666,20.25,779.1666666666666,18.208333333333332,800,18" transform="matrix(1,0,0,1,0,133)"></path><path d="M10,10C28.75,7.916666666666666,60.416666666666664,2.2916666666666665,100,0C139.58333333333334,-2.2916666666666665,158.33333333333331,-3.2916666666666665,200,-1C241.66666666666669,1.2916666666666665,258.3333333333333,10.791666666666666,300,11C341.6666666666667,11.208333333333334,358.3333333333333,-1.4583333333333335,400,0C441.6666666666667,1.4583333333333335,458.3333333333333,15.5,500,18C541.6666666666666,20.5,558.3333333333334,11.791666666666666,600,12C641.6666666666666,12.208333333333334,658.3333333333334,17.75,700,19C741.6666666666666,20.25,779.1666666666666,18.208333333333332,800,18" transform="matrix(1,0,0,1,0,114)"></path><path d="M10,10C28.75,7.916666666666666,60.416666666666664,2.2916666666666665,100,0C139.58333333333334,-2.2916666666666665,158.33333333333331,-3.2916666666666665,200,-1C241.66666666666669,1.2916666666666665,258.3333333333333,10.791666666666666,300,11C341.6666666666667,11.208333333333334,358.3333333333333,-1.4583333333333335,400,0C441.6666666666667,1.4583333333333335,458.3333333333333,15.5,500,18C541.6666666666666,20.5,558.3333333333334,11.791666666666666,600,12C641.6666666666666,12.208333333333334,658.3333333333334,17.75,700,19C741.6666666666666,20.25,779.1666666666666,18.208333333333332,800,18" transform="matrix(1,0,0,1,0,95)"></path><path d="M10,10C28.75,7.916666666666666,60.416666666666664,2.2916666666666665,100,0C139.58333333333334,-2.2916666666666665,158.33333333333331,-3.2916666666666665,200,-1C241.66666666666669,1.2916666666666665,258.3333333333333,10.791666666666666,300,11C341.6666666666667,11.208333333333334,358.3333333333333,-1.4583333333333335,400,0C441.6666666666667,1.4583333333333335,458.3333333333333,15.5,500,18C541.6666666666666,20.5,558.3333333333334,11.791666666666666,600,12C641.6666666666666,12.208333333333334,658.3333333333334,17.75,700,19C741.6666666666666,20.25,779.1666666666666,18.208333333333332,800,18" transform="matrix(1,0,0,1,0,76)"></path><path d="M10,10C28.75,7.916666666666666,60.416666666666664,2.2916666666666665,100,0C139.58333333333334,-2.2916666666666665,158.33333333333331,-3.2916666666666665,200,-1C241.66666666666669,1.2916666666666665,258.3333333333333,10.791666666666666,300,11C341.6666666666667,11.208333333333334,358.3333333333333,-1.4583333333333335,400,0C441.6666666666667,1.4583333333333335,458.3333333333333,15.5,500,18C541.6666666666666,20.5,558.3333333333334,11.791666666666666,600,12C641.6666666666666,12.208333333333334,658.3333333333334,17.75,700,19C741.6666666666666,20.25,779.1666666666666,18.208333333333332,800,18" transform="matrix(1,0,0,1,0,57)"></path><path d="M10,10C28.75,7.916666666666666,60.416666666666664,2.2916666666666665,100,0C139.58333333333334,-2.2916666666666665,158.33333333333331,-3.2916666666666665,200,-1C241.66666666666669,1.2916666666666665,258.3333333333333,10.791666666666666,300,11C341.6666666666667,11.208333333333334,358.3333333333333,-1.4583333333333335,400,0C441.6666666666667,1.4583333333333335,458.3333333333333,15.5,500,18C541.6666666666666,20.5,558.3333333333334,11.791666666666666,600,12C641.6666666666666,12.208333333333334,658.3333333333334,17.75,700,19C741.6666666666666,20.25,779.1666666666666,18.208333333333332,800,18" transform="matrix(1,0,0,1,0,38)"></path><path d="M10,10C28.75,7.916666666666666,60.416666666666664,2.2916666666666665,100,0C139.58333333333334,-2.2916666666666665,158.33333333333331,-3.2916666666666665,200,-1C241.66666666666669,1.2916666666666665,258.3333333333333,10.791666666666666,300,11C341.6666666666667,11.208333333333334,358.3333333333333,-1.4583333333333335,400,0C441.6666666666667,1.4583333333333335,458.3333333333333,15.5,500,18C541.6666666666666,20.5,558.3333333333334,11.791666666666666,600,12C641.6666666666666,12.208333333333334,658.3333333333334,17.75,700,19C741.6666666666666,20.25,779.1666666666666,18.208333333333332,800,18" transform="matrix(1,0,0,1,0,19)"></path></g></svg>